<?xml version="1.0" standalone="no"?>
<!DOCTYPE svg PUBLIC "-//W3C//DTD SVG 20010904//EN"
 "http://www.w3.org/TR/2001/REC-SVG-20010904/DTD/svg10.dtd">
<svg version="1.0" xmlns="http://www.w3.org/2000/svg"
 width="300.000000pt" height="300.000000pt" viewBox="0 0 300.000000 300.000000"
 preserveAspectRatio="xMidYMid meet">
<metadata>
Created by potrace 1.10, written by Peter Selinger 2001-2011
</metadata>
<g transform="translate(0.000000,300.000000) scale(0.100000,-0.100000)"
fill="#000000" stroke="none">
<path d="M0 1500 l0 -1500 1500 0 1500 0 0 1500 0 1500 -1500 0 -1500 0 0
-1500z m2990 0 l0 -1490 -1490 0 -1490 0 0 1490 0 1490 1490 0 1490 0 0 -1490z"/>
<path d="M2071 2468 c0 -10 -8 -18 -16 -18 -8 0 -15 -4 -15 -10 0 -5 6 -10 14
-10 8 0 17 -6 19 -12 4 -10 6 -10 6 0 1 6 8 12 16 12 8 0 15 5 15 10 0 6 -6
10 -14 10 -8 0 -17 8 -19 18 -4 16 -5 16 -6 0z"/>
<path d="M1080 2401 c0 -5 -3 -16 -6 -25 -5 -13 2 -16 37 -16 42 0 50 7 13 13
-37 5 -18 22 24 20 50 -2 82 -25 82 -59 0 -25 -6 -32 -61 -68 -25 -16 -41 -21
-50 -15 -14 10 -5 21 47 57 11 7 -1 2 -26 -10 -53 -28 -64 -54 -24 -64 19 -5
29 -2 35 9 5 8 25 21 45 27 63 21 66 93 5 125 -32 16 -121 21 -121 6z"/>
<path d="M2270 2330 c0 -13 -7 -20 -20 -20 -11 0 -20 -4 -20 -10 0 -5 9 -10
20 -10 13 0 20 -7 20 -20 0 -11 5 -20 10 -20 6 0 10 9 10 20 0 13 7 20 20 20
11 0 20 5 20 10 0 6 -9 10 -20 10 -13 0 -20 7 -20 20 0 11 -4 20 -10 20 -5 0
-10 -9 -10 -20z"/>
<path d="M670 2308 c0 -15 -10 -27 -28 -36 -23 -11 -29 -10 -40 5 -9 13 -15
14 -24 5 -9 -9 -9 -16 4 -28 22 -22 2 -64 -30 -64 -17 0 -23 -5 -20 -17 2 -10
11 -18 21 -18 9 0 23 -12 31 -26 12 -23 12 -29 -1 -42 -22 -22 -6 -43 17 -22
14 13 22 14 44 4 14 -7 26 -20 26 -31 0 -10 7 -18 15 -18 8 0 15 8 15 18 0 11
12 24 26 31 22 10 30 9 45 -5 17 -16 19 -16 25 1 4 10 1 20 -6 25 -21 13 2 66
29 63 15 -2 21 3 21 17 0 14 -7 20 -24 20 -28 0 -44 43 -26 66 18 21 1 38 -19
20 -24 -22 -71 -1 -71 32 0 13 -6 22 -15 22 -9 0 -15 -9 -15 -22z m69 -94 c27
-35 26 -59 -4 -89 -45 -46 -118 -19 -118 43 0 69 80 99 122 46z"/>
<path d="M1080 2196 c-27 -33 18 -72 48 -42 13 13 14 20 6 34 -15 23 -38 26
-54 8z"/>
<path d="M1956 2118 c-13 -18 -16 -56 -16 -200 0 -166 1 -179 20 -198 20 -20
32 -21 301 -19 262 1 282 2 300 20 17 17 19 35 19 197 0 144 -3 182 -16 200
-15 22 -17 22 -304 22 -287 0 -289 0 -304 -22z m284 -18 c0 -6 -6 -13 -14 -16
-14 -5 -129 -172 -160 -231 -22 -43 -20 -56 10 -92 l26 -31 -49 0 c-84 0 -85
2 -86 188 0 116 4 166 13 177 10 12 37 15 136 15 79 0 124 -4 124 -10z m300
-10 c6 -12 9 -81 8 -182 l-3 -163 -43 -14 c-23 -7 -54 -10 -69 -6 l-26 6 31
29 c36 33 39 48 16 93 -31 59 -146 226 -160 231 -8 3 -14 10 -14 16 0 6 46 10
125 10 114 0 125 -2 135 -20z m-173 -151 c70 -105 85 -134 76 -147 -9 -15 -32
-17 -183 -17 -149 0 -174 2 -183 16 -8 13 5 40 63 130 40 63 80 122 88 132 31
36 49 21 139 -114z"/>
<path d="M2183 1926 c-40 -62 -73 -114 -73 -117 0 -2 68 -4 150 -4 114 0 149
3 146 12 -6 14 -145 223 -149 222 -1 0 -35 -51 -74 -113z m93 2 c-11 -81 -26
-80 -34 2 -4 47 -3 50 18 50 21 0 22 -3 16 -52z m-46 -70 c0 -18 -45 -37 -58
-24 -3 4 2 23 13 42 17 33 20 34 32 18 7 -10 13 -26 13 -36z m120 -7 c0 -13
-28 -21 -45 -15 -16 7 -18 17 -8 53 l6 24 24 -27 c12 -15 23 -31 23 -35z"/>
<path d="M460 2115 c0 -21 -27 -30 -44 -16 -11 9 -16 9 -21 0 -4 -6 -3 -14 3
-18 17 -10 3 -48 -21 -56 l-22 -8 22 -4 c25 -5 38 -30 23 -48 -8 -10 -8 -15 1
-20 6 -4 14 -2 18 4 11 17 41 2 41 -20 0 -10 7 -19 15 -19 8 0 15 8 15 19 0
22 33 34 49 18 15 -15 26 0 12 16 -16 20 -3 47 22 47 18 0 18 2 -7 25 -28 26
-32 40 -16 50 6 4 8 11 4 16 -4 6 -11 6 -20 -2 -17 -14 -44 -5 -44 16 0 8 -7
15 -15 15 -8 0 -15 -7 -15 -15z m56 -66 c17 -19 17 -23 3 -47 -21 -38 -62 -41
-85 -8 -15 24 -15 28 0 51 20 31 56 33 82 4z"/>
<path d="M2701 2078 c0 -10 -8 -18 -16 -18 -8 0 -15 -4 -15 -10 0 -5 6 -10 14
-10 8 0 17 -8 19 -17 4 -17 5 -17 6 0 0 9 8 17 16 17 8 0 15 5 15 10 0 6 -6
10 -14 10 -8 0 -17 8 -19 18 -4 16 -5 16 -6 0z"/>
<path d="M931 2038 c0 -10 -8 -18 -16 -18 -8 0 -15 -5 -15 -11 0 -5 4 -8 9 -4
6 3 14 -3 20 -12 10 -17 10 -17 11 1 0 12 5 16 15 12 8 -3 15 -1 15 4 0 6 -6
10 -14 10 -8 0 -17 8 -19 18 -4 16 -5 16 -6 0z"/>
<path d="M1500 1719 c0 -215 2 -250 14 -240 11 9 15 9 19 -1 3 -7 6 85 6 205
l1 217 193 2 c105 1 155 4 111 5 -76 4 -82 5 -77 23 5 17 14 20 67 21 104 1
112 18 9 18 l-91 1 -10 -30 -11 -29 -87 29 c-48 17 -100 30 -116 30 l-28 0 0
-251z m99 217 c26 -15 20 -22 -23 -24 -16 -1 -35 -7 -42 -13 -11 -9 -14 -5
-14 20 0 27 3 31 28 31 15 -1 38 -7 51 -14z"/>
<path d="M607 1844 c-19 -10 -27 -21 -23 -31 3 -8 6 -17 6 -20 0 -4 9 2 20 12
11 10 17 22 14 26 -3 5 2 6 10 3 9 -3 16 -1 16 6 0 6 5 8 11 4 6 -3 7 -9 3
-13 -5 -3 -10 -13 -11 -21 -1 -8 -5 -26 -9 -39 -6 -19 -4 -22 12 -19 20 3 40
67 30 93 -7 19 -43 19 -79 -1z"/>
<path d="M664 1729 c-3 -6 -2 -15 4 -21 13 -13 32 -2 32 18 0 16 -26 19 -36 3z"/>
<path d="M1634 1620 c0 -63 1 -89 3 -57 2 31 2 83 0 115 -2 31 -3 5 -3 -58z"/>
<path d="M2467 1683 c-5 -4 -14 -8 -20 -8 -9 0 -13 -68 -14 -253 -1 -154 2
-252 7 -252 6 0 10 26 11 58 0 65 12 49 23 -34 l7 -50 62 4 c34 2 78 12 97 20
l35 17 -57 3 c-32 2 -67 -2 -78 -8 -21 -11 -21 -11 -5 14 16 24 23 26 89 27
39 0 80 4 91 9 18 7 18 9 -10 20 -16 6 -50 10 -75 7 l-45 -5 26 21 c29 24 79
120 79 151 0 18 -2 18 -26 -5 -34 -32 -54 -71 -54 -107 0 -19 -10 -38 -32 -58
-22 -21 -29 -24 -25 -11 14 39 18 93 9 117 l-10 25 -16 -37 c-18 -42 -21 -91
-7 -117 7 -12 4 -26 -11 -49 -11 -18 -23 -30 -26 -27 -4 3 -9 125 -12 271 -3
146 -9 262 -13 257z"/>
<path d="M346 1634 c-13 -13 -16 -42 -16 -164 0 -82 3 -155 6 -164 5 -13 23
-16 95 -16 l89 0 0 -200 c0 -181 -2 -200 -17 -200 -15 0 -14 -2 3 -14 23 -17
13 -31 -13 -18 -26 13 -83 23 -83 14 0 -10 81 -62 97 -62 18 0 16 -17 -3 -24
-9 -3 -33 6 -57 22 -44 30 -107 56 -115 47 -10 -9 33 -48 72 -66 l40 -17 -37
-7 c-20 -4 -37 -11 -37 -16 0 -5 -6 -9 -14 -9 -7 0 -33 -18 -57 -40 -44 -40
-44 -40 -14 -34 53 11 95 36 112 65 10 16 22 29 28 29 5 0 21 3 34 7 24 6 24
5 -7 -33 -17 -21 -36 -52 -41 -67 l-11 -28 31 18 c40 23 69 64 69 97 0 14 5
26 10 26 6 0 10 -30 10 -70 l0 -70 -45 0 -45 0 0 -45 c0 -29 4 -45 13 -45 190
-5 2153 2 2158 7 4 5 28 87 54 183 25 96 57 210 71 252 27 81 26 98 -7 98 -12
0 -19 7 -19 19 0 29 -15 34 -83 26 -56 -7 -60 -9 -37 -18 22 -10 17 -12 -45
-17 l-70 -6 71 -2 c38 -1 74 2 80 8 14 14 78 -8 92 -31 10 -15 8 -31 -7 -77
-10 -31 -40 -136 -66 -232 -26 -96 -50 -178 -53 -181 -4 -4 -145 -9 -314 -12
l-308 -6 0 27 0 27 -18 -22 -17 -23 -730 3 c-723 2 -730 2 -730 22 0 20 40 39
75 35 8 -1 105 -4 215 -6 110 -3 204 -9 209 -14 14 -14 453 -13 461 0 6 9 73
12 245 11 39 0 120 29 120 43 0 24 -12 24 -53 0 -39 -22 -53 -24 -179 -24
-117 0 -138 -2 -138 -15 0 -13 -30 -15 -227 -13 -176 2 -227 6 -226 16 2 9
-44 12 -206 12 l-209 0 2 325 1 325 142 0 c162 0 163 0 155 81 l-5 49 492 0
491 0 0 -355 c0 -353 0 -356 20 -345 20 11 20 19 18 373 l-3 362 -505 2 -505
2 3 75 c3 65 1 77 -17 95 -20 20 -31 21 -250 21 -195 0 -232 -2 -245 -16z
m126 -20 c20 -6 20 -6 0 -27 -57 -63 -63 -161 -13 -228 30 -41 26 -49 -23 -49
-71 0 -76 10 -76 165 0 119 2 134 18 137 35 7 75 8 94 2z m339 -4 c16 -9 19
-22 19 -85 0 -40 4 -76 10 -80 6 -4 6 -15 0 -31 -6 -14 -10 -40 -10 -59 0 -21
-6 -35 -16 -39 -22 -9 -114 -7 -114 2 0 4 14 27 30 51 23 33 30 55 30 90 0 47
-28 122 -50 136 -33 21 63 35 101 15z m-140 -23 c95 -63 86 -203 -15 -251 -69
-33 -145 -10 -187 56 -26 42 -22 127 7 159 54 62 135 77 195 36z"/>
<path d="M544 1570 c-37 -15 -64 -59 -64 -104 0 -80 12 -79 100 9 72 72 79 81
63 92 -19 15 -68 16 -99 3z m56 -27 c0 -10 -72 -83 -82 -83 -17 0 -7 42 17 65
22 23 65 34 65 18z"/>
<path d="M602 1457 l-84 -84 31 -13 c91 -37 187 58 149 148 l-13 33 -83 -84z
m78 3 c0 -23 -24 -59 -47 -69 -53 -24 -58 -3 -11 46 31 32 58 43 58 23z"/>
<path d="M2334 1380 c0 -102 2 -143 3 -92 2 50 2 134 0 185 -1 50 -3 9 -3 -93z"/>
<path d="M200 1445 c0 -8 -9 -15 -20 -15 -11 0 -20 -7 -20 -15 0 -8 9 -15 20
-15 11 0 20 -7 20 -15 0 -8 5 -15 10 -15 6 0 10 9 10 19 0 14 5 18 20 14 14
-4 20 0 20 12 0 12 -6 16 -20 12 -15 -4 -20 0 -20 14 0 10 -4 19 -10 19 -5 0
-10 -7 -10 -15z"/>
<path d="M2795 1393 c-11 -3 -49 -24 -83 -46 -57 -36 -62 -42 -47 -53 23 -17
119 -28 140 -17 14 8 10 13 -24 26 -23 10 -54 17 -69 17 -45 1 0 20 57 25 27
3 68 12 92 21 36 15 39 19 23 25 -21 8 -59 9 -89 2z"/>
<path d="M1143 1200 c0 -36 2 -50 4 -32 2 17 2 47 0 65 -2 17 -4 3 -4 -33z"/>
<path d="M1744 1080 c0 -102 2 -143 3 -92 2 50 2 134 0 185 -1 50 -3 9 -3 -93z"/>
<path d="M1383 1155 c-8 -22 0 -27 33 -19 l29 8 -25 7 c-19 6 -14 7 20 6 38
-2 45 -5 48 -24 2 -15 -6 -31 -25 -47 -30 -26 -44 -27 -23 -1 16 20 6 19 -14
-1 -22 -22 -20 -34 7 -33 12 0 34 15 51 35 27 33 27 35 12 59 -14 21 -25 25
-62 25 -31 0 -46 -5 -51 -15z"/>
<path d="M2043 1124 c-7 -20 15 -122 29 -130 8 -5 9 12 4 55 l-7 61 143 2 c79
1 170 2 203 2 58 -1 59 -1 30 12 -21 9 -85 13 -213 14 -158 0 -183 -2 -189
-16z"/>
<path d="M634 905 c0 -99 2 -138 3 -87 2 51 2 132 0 180 -1 48 -3 6 -3 -93z"/>
<path d="M2382 1015 c-6 -14 -18 -25 -27 -25 -8 0 -15 -4 -15 -9 0 -19 42 3
51 27 13 33 5 39 -9 7z"/>
<path d="M1414 1015 c-4 -9 -2 -21 3 -26 14 -14 45 1 41 20 -4 22 -37 26 -44
6z"/>
<path d="M870 969 c0 -15 4 -19 16 -15 9 3 22 6 30 6 9 0 12 5 9 10 -8 12 25
13 44 1 18 -11 7 -56 -15 -65 -12 -5 -15 -2 -10 10 6 15 4 15 -11 3 -40 -31
-43 -49 -8 -49 14 0 25 5 25 10 0 6 12 21 27 34 26 23 27 24 10 50 -15 22 -25
26 -67 26 -44 0 -50 -2 -50 -21z"/>
<path d="M1972 959 c-60 -30 -92 -87 -92 -165 0 -71 21 -111 78 -149 157 -104
342 58 263 230 -22 48 -44 69 -94 90 -50 21 -104 19 -155 -6z m190 -67 c34
-37 38 -46 38 -96 0 -44 -5 -60 -26 -86 -54 -63 -133 -79 -195 -37 -90 60 -89
184 1 245 29 20 44 23 89 19 48 -3 59 -9 93 -45z"/>
<path d="M2078 875 c2 -14 0 -31 -6 -38 -5 -7 -6 -21 -1 -32 9 -23 9 -24 15
37 2 25 1 49 -4 52 -5 3 -7 -6 -4 -19z"/>
<path d="M1232 808 l2 -83 5 75 6 75 100 6 100 5 -107 2 -108 2 2 -82z"/>
<path d="M1508 883 c34 -2 90 -2 125 0 34 2 6 3 -63 3 -69 0 -97 -1 -62 -3z"/>
<path d="M230 859 c0 -6 20 -31 44 -55 50 -50 38 -56 -38 -20 -54 26 -126 42
-126 29 0 -4 17 -19 37 -33 30 -20 51 -26 115 -29 109 -5 120 1 79 43 -39 40
-111 83 -111 65z"/>
<path d="M2292 848 c-16 -16 -15 -43 1 -57 16 -13 37 4 37 30 0 25 -24 41 -38
27z"/>
<path d="M2462 848 c-24 -24 -5 -72 24 -61 18 7 18 47 1 62 -10 8 -17 7 -25
-1z"/>
<path d="M903 834 c-3 -8 -1 -20 6 -27 14 -14 47 15 37 32 -10 16 -36 13 -43
-5z"/>
<path d="M2354 750 c-24 -10 -41 -30 -25 -30 5 0 13 5 16 10 3 6 24 10 45 10
21 0 42 -4 45 -10 3 -5 11 -10 18 -10 7 0 6 5 -3 15 -20 19 -69 27 -96 15z"/>
<path d="M748 703 c46 -2 118 -2 160 0 42 1 5 3 -83 3 -88 0 -123 -2 -77 -3z"/>
<path d="M1847 668 c-17 -9 -17 -11 9 -24 15 -8 37 -13 48 -11 16 3 15 5 -6 6
-18 1 -28 7 -30 20 -2 16 -6 18 -21 9z"/>
<path d="M1102 633 c48 -2 129 -2 180 0 51 1 12 3 -87 3 -99 0 -141 -2 -93 -3z"/>
</g>
</svg>
